# xmcd CD database file
#
# Track frame offsets:
#	150
#	10673
#	22172
#	36475
#	47325
#	60550
#	72151
#	82942
#	92665
#	102023
#	114426
#	125410
#	137369
#	151006
#	161332
#
# Disc length: 2290 seconds
#
# Revision: 0
# Processed by: cddbd v1.5.1PL0 Copyright (c) Steve Scherf et al.
# Submitted via: CDex 1.51
#
DISCID=aa08f00f
DTITLE=Ferlin Husky - Absolutely The Best
DYEAR=2004
DGENRE=Country
TTITLE0=Wngs Of A Dove
TTITLE1=A Dear John Letter
TTITLE2=Country Music Is Here To Stay
TTITLE3=Gone
TTITLE4=Cuzz Yore So Sweet
TTITLE5=I Feel Better All Over
TTITLE6=A Fallen Star
TTITLE7=Draggin' The River
TTITLE8=My Reason For Living
TTITLE9=I'll Baby Sit WIth You
TTITLE10=Forgive Me, John
TTITLE11=Timber, I'm Falling
TTITLE12=Little Tom
TTITLE13=Once
TTITLE14=Just For You
EXTD=YEAR: 2004
EXTT0=
EXTT1=
EXTT2=
EXTT3=
EXTT4=
EXTT5=
EXTT6=
EXTT7=
EXTT8=
EXTT9=
EXTT10=
EXTT11=
EXTT12=
EXTT13=
EXTT14=
PLAYORDER=
